<svg id="Layer_1" data-name="Layer 1" xmlns="http://www.w3.org/2000/svg" viewBox="0 0 720 720"><defs><style>.cls-1{fill:#fff;}.cls-2{opacity:0.9;}.cls-3{fill:#f1f2f2;}</style></defs><title>reverse logo (white)</title><circle class="cls-1" cx="360" cy="264.64" r="20.38" transform="translate(41.11 577.6) rotate(-80.78)"/><path class="cls-1" d="M462.35,272.26a18.66,18.66,0,0,0-10.75-11.44,19.72,19.72,0,0,0-16.6.31A23.29,23.29,0,0,0,423.33,274L360,429.42l18.18,44.66q3.66,9,.76,17.26a19.79,19.79,0,0,1-2.76,5.24,25,25,0,0,0,4-6.67l81.55-200.32A23.24,23.24,0,0,0,462.35,272.26Z"/><g class="cls-2"><path class="cls-3" d="M360,130.32c-124.91,0-226.18,100.71-226.18,225,0,109.41,78.54,200.57,182.6,220.78a21.28,21.28,0,0,0,25.23-21v0a21.3,21.3,0,0,0-17.42-20.95c-87.31-16.1-153.29-90-153.29-178.84,0-100.57,84.64-182.1,189.06-182.1s189.06,81.53,189.06,182.1c0,88.08-64.92,161.54-151.18,178.44a21.31,21.31,0,0,0,8.24,41.82c102.79-21.18,180.06-111.74,180.06-220.26C586.18,231,484.91,130.32,360,130.32Z"/><path class="cls-3" d="M360,429.42,296.67,273.76A23.26,23.26,0,0,0,285,260.94a19.72,19.72,0,0,0-16.6-.31,18.66,18.66,0,0,0-10.75,11.44,23.24,23.24,0,0,0,.61,17.33l81.55,200.31a26,26,0,0,0,2.53,4.77,21.84,21.84,0,0,0,9.44,7.93,20.68,20.68,0,0,0,11.38,1.8,24.23,24.23,0,0,0,5.06-1.6,21.9,21.9,0,0,0,8-6,19.79,19.79,0,0,0,2.76-5.24q2.91-8.25-.76-17.26Z"/></g><path class="cls-1" d="M165.46,619.45a3,3,0,0,0-1.69.53,3.42,3.42,0,0,0-1.21,1.48l-9.71,25-10.61-25a3.3,3.3,0,0,0-1.22-1.53,3,3,0,0,0-1.69-.53,3.38,3.38,0,0,0-2.16.87,3.13,3.13,0,0,0-.79,3.62l13,30.61A3.26,3.26,0,0,0,150.6,656a3.45,3.45,0,0,0,1.67.55,3.33,3.33,0,0,0,1.79-.53,3.55,3.55,0,0,0,1.32-1.53l13-30.51a3.63,3.63,0,0,0,.32-1.42,2.85,2.85,0,0,0-1-2.17A3.28,3.28,0,0,0,165.46,619.45Z"/><path class="cls-1" d="M187.16,619.56a3.35,3.35,0,0,0-2.43.92,3.11,3.11,0,0,0-.95,2.3v30.51a3.14,3.14,0,0,0,.92,2.3,3.21,3.21,0,0,0,2.35.92,3.34,3.34,0,0,0,2.32-.92,3,3,0,0,0,1-2.3V622.78a3.11,3.11,0,0,0-.95-2.3A3.17,3.17,0,0,0,187.16,619.56Z"/><path class="cls-1" d="M232.08,619.56H208.64a3.27,3.27,0,0,0-2.29.84,2.81,2.81,0,0,0-.93,2.17,2.92,2.92,0,0,0,.9,2.22,3.26,3.26,0,0,0,2.32.84h8.29v27.66a3.09,3.09,0,0,0,.95,2.3,3.35,3.35,0,0,0,2.43.92,3.56,3.56,0,0,0,2.48-.92,3,3,0,0,0,1-2.3V625.63h8.29a3.29,3.29,0,0,0,2.32-.82,2.8,2.8,0,0,0,.9-2.19,2.92,2.92,0,0,0-.9-2.22A3.26,3.26,0,0,0,232.08,619.56Z"/><path class="cls-1" d="M263.7,621.46a3.19,3.19,0,0,0-1.19-1.56,3.11,3.11,0,0,0-1.77-.55,2.79,2.79,0,0,0-1.9.47,3.56,3.56,0,0,0-1.27,1.64L244.43,653a3.31,3.31,0,0,0-.16,1,2.8,2.8,0,0,0,4.46,2.19,3.29,3.29,0,0,0,1.14-1.56l2.74-6.44h15.73l2.74,6.39a3.78,3.78,0,0,0,1.19,1.58,2.75,2.75,0,0,0,1.72.58,2.89,2.89,0,0,0,2.06-.87,3,3,0,0,0,.89-2.24,3.47,3.47,0,0,0-.26-1.27Zm-8.5,20.69,5.22-12.35,5.33,12.35Z"/><path class="cls-1" d="M318.59,619.56a3.38,3.38,0,0,0-2.43.92,3.11,3.11,0,0,0-1,2.3v30.51a3.11,3.11,0,0,0,.93,2.3,3.17,3.17,0,0,0,2.34.92,3.37,3.37,0,0,0,2.33-.92,3,3,0,0,0,1-2.3V622.78a3.11,3.11,0,0,0-.95-2.3A3.16,3.16,0,0,0,318.59,619.56Z"/><path class="cls-1" d="M371.27,619.51a3,3,0,0,0-1.45.39,3.25,3.25,0,0,0-1.14,1l-11.82,17.69-11.51-17.69a3.09,3.09,0,0,0-1.21-1,3.57,3.57,0,0,0-1.58-.39,3.21,3.21,0,0,0-2.35,1,3.06,3.06,0,0,0-1,2.27v30.56a3.29,3.29,0,0,0,.84,2.3,2.84,2.84,0,0,0,2.17.92,2.92,2.92,0,0,0,2.22-.9,3.26,3.26,0,0,0,.84-2.32V631.54L354,645.32a4.73,4.73,0,0,0,1.21,1,2.36,2.36,0,0,0,1.38.34,2.43,2.43,0,0,0,1.42-.34,4.78,4.78,0,0,0,1.22-1l8.7-13.3v21.27a3.08,3.08,0,0,0,.93,2.32,3.29,3.29,0,0,0,2.4.9,3.1,3.1,0,0,0,3.27-3.22V622.73a3,3,0,0,0-1-2.3A3.28,3.28,0,0,0,371.27,619.51Z"/><path class="cls-1" d="M408,621.46a3.19,3.19,0,0,0-1.19-1.56,3.11,3.11,0,0,0-1.77-.55,2.79,2.79,0,0,0-1.9.47,3.56,3.56,0,0,0-1.27,1.64L388.69,653a3.31,3.31,0,0,0-.16,1,2.8,2.8,0,0,0,4.46,2.19,3.29,3.29,0,0,0,1.14-1.56l2.74-6.44H412.6l2.74,6.39a3.78,3.78,0,0,0,1.19,1.58,2.75,2.75,0,0,0,1.72.58,2.89,2.89,0,0,0,2.06-.87,3,3,0,0,0,.89-2.24,3.47,3.47,0,0,0-.26-1.27Zm-8.5,20.69,5.22-12.35L410,642.15Z"/><path class="cls-1" d="M462.17,636.56h-8.66a3.2,3.2,0,0,0-2.3.89,3.06,3.06,0,0,0-.92,2.27,3,3,0,0,0,.92,2.27,3.17,3.17,0,0,0,2.3.9h5v6.86a17.76,17.76,0,0,1-3,.69,20,20,0,0,1-3.16.26,11.87,11.87,0,0,1-6.23-1.71,12.79,12.79,0,0,1,0-21.91,11.87,11.87,0,0,1,6.23-1.71,14.92,14.92,0,0,1,5.91,1.21A4.32,4.32,0,0,0,460,627a2.75,2.75,0,0,0,2.14-1,3.35,3.35,0,0,0,.87-2.3,2.86,2.86,0,0,0-.4-1.48,3,3,0,0,0-1.18-1.11,18.71,18.71,0,0,0-9.08-2.11,19.33,19.33,0,0,0-16.68,9.48,18.81,18.81,0,0,0,0,19A19.33,19.33,0,0,0,452.35,657a21.14,21.14,0,0,0,11.35-3.22,3.16,3.16,0,0,0,1.63-2.85V639.78a3.2,3.2,0,0,0-.89-2.3A3.06,3.06,0,0,0,462.17,636.56Z"/><path class="cls-1" d="M484.55,619.56a3.35,3.35,0,0,0-2.43.92,3.07,3.07,0,0,0-.95,2.3v30.51a3.14,3.14,0,0,0,.92,2.3,3.21,3.21,0,0,0,2.35.92,3.34,3.34,0,0,0,2.32-.92,3,3,0,0,0,1-2.3V622.78a3.11,3.11,0,0,0-.95-2.3A3.19,3.19,0,0,0,484.55,619.56Z"/><path class="cls-1" d="M533.21,619.56a2.77,2.77,0,0,0-2.08.84,2.92,2.92,0,0,0-.82,2.12v22.69L511.1,620.72a2.54,2.54,0,0,0-1.14-.84,4.07,4.07,0,0,0-1.56-.32,3.14,3.14,0,0,0-3.21,3.22v30.77a2.94,2.94,0,0,0,.79,2.11,2.66,2.66,0,0,0,2.06.85,2.79,2.79,0,0,0,2.13-.85,2.88,2.88,0,0,0,.82-2.11V631l19.37,24.6a2.09,2.09,0,0,0,1,.66,4.54,4.54,0,0,0,1.45.24,3.14,3.14,0,0,0,2.3-.92,3.11,3.11,0,0,0,.92-2.3V622.52a3,3,0,0,0-.79-2.12A2.7,2.7,0,0,0,533.21,619.56Z"/><path class="cls-1" d="M583,637.48a3.06,3.06,0,0,0-2.27-.92h-8.66a3.18,3.18,0,0,0-2.29.89,3,3,0,0,0-.93,2.27,3,3,0,0,0,.93,2.27,3.14,3.14,0,0,0,2.29.9h5v6.86a17.87,17.87,0,0,1-2.95.69,20.08,20.08,0,0,1-3.17.26,11.89,11.89,0,0,1-6.23-1.71,12.72,12.72,0,0,1-4.51-4.62,12.92,12.92,0,0,1,0-12.67,12.72,12.72,0,0,1,4.51-4.62,11.89,11.89,0,0,1,6.23-1.71,14.92,14.92,0,0,1,5.91,1.21,4.4,4.4,0,0,0,1.74.42,2.75,2.75,0,0,0,2.14-1,3.35,3.35,0,0,0,.87-2.3,3,3,0,0,0-.39-1.48,3.05,3.05,0,0,0-1.19-1.11A18.71,18.71,0,0,0,570.9,619a19.33,19.33,0,0,0-16.68,9.48,18.81,18.81,0,0,0,0,19A19.33,19.33,0,0,0,570.9,657a21.12,21.12,0,0,0,11.35-3.22,3.17,3.17,0,0,0,1.64-2.85V639.78A3.17,3.17,0,0,0,583,637.48Z"/></svg>